<svg xmlns="http://www.w3.org/2000/svg" xmlns:xlink="http://www.w3.org/1999/xlink" width="22" height="45" viewBox="0 0 22 45"><defs><path id="pg79a" d="M549.409 1238.196a.894.894 0 0 0 .26-.633v-5.364a6.259 6.259 0 0 0-6.258-6.259h-7.152a6.259 6.259 0 0 0-6.259 6.259v5.364c0 .237.093.465.261.633l.461.462a3.512 3.512 0 0 1 0 4.965l-.46.462a.894.894 0 0 0-.262.63v8.942a6.259 6.259 0 0 0 6.259 6.258h7.152a6.259 6.259 0 0 0 6.259-6.258v-8.941a.894.894 0 0 0-.261-.633l-.462-.461a3.512 3.512 0 0 1 0-4.966z"/><path id="pg79b" d="M536.254 1225.944h7.153c.304 0 .602.023.894.065v-4.535c0-.494-.4-.894-.894-.894h-7.153c-.494 0-.894.4-.894.894v4.535c.292-.042.59-.065.894-.065"/><path id="pg79c" d="M536.262 1256.343a2.682 2.682 0 0 1-2.682-2.683v-7.528c0-.203.07-.4.197-.56a7.126 7.126 0 0 0 0-8.86.894.894 0 0 1-.197-.56v-3.95c0-1.481 1.2-2.682 2.682-2.682a.894.894 0 1 1 0 1.788c-.494 0-.894.4-.894.894v3.646a8.94 8.94 0 0 1 0 10.59v7.222c0 .494.4.895.894.895a.894.894 0 1 1 0 1.788"/><path id="pg79d" d="M546.38 1218.79h-3.73c.099.28.153.58.153.894v.894h3.577a1.788 1.788 0 1 1 0 3.577h-2.683a.894.894 0 0 0 0 1.788h2.683a3.576 3.576 0 0 0 0-7.153"/><path id="pg79e" d="M542.814 1220.576v-.894a2.682 2.682 0 0 0-5.364 0v.894z"/></defs><g><g transform="translate(-529 -1216)"><g><g><use fill="#b4c6d7" xlink:href="#pg79a"/><use fill="#fff" fill-opacity="0" stroke="#333" stroke-miterlimit="50" stroke-width=".9" xlink:href="#pg79a"/></g></g><g><use fill="#455a64" xlink:href="#pg79b"/><use fill="#fff" fill-opacity="0" stroke="#333" stroke-miterlimit="50" stroke-width=".9" xlink:href="#pg79b"/></g><g><use fill="#fff" xlink:href="#pg79c"/><use fill="#fff" fill-opacity="0" stroke="#b4c6d7" stroke-miterlimit="50" xlink:href="#pg79c"/></g><g><use fill="#cfd8dc" xlink:href="#pg79d"/><use fill="#fff" fill-opacity="0" stroke="#333" stroke-miterlimit="50" stroke-width=".9" xlink:href="#pg79d"/></g><g><use fill="#607d8b" xlink:href="#pg79e"/><use fill="#fff" fill-opacity="0" stroke="#333" stroke-miterlimit="50" stroke-width=".9" xlink:href="#pg79e"/></g></g></g></svg>