<svg xmlns="http://www.w3.org/2000/svg" xmlns:xlink="http://www.w3.org/1999/xlink" width="38" height="43" viewBox="0 0 38 43"><defs><path id="6gzoa" d="M354.885 1028.84a16.585 16.585 0 0 1-6.504 13.183v3.44h-20.236v-3.44a16.597 16.597 0 0 1-4.53-21.024c.057-.036.13-.072.194-.108 0 0 3.202-2.168 12.813 0l.196.043.628.13c.268.051.528.101.788.145a.083.083 0 0 0 .043 0c.115.026.23.045.347.058.16.029.326.05.485.072.086.015.18.029.267.036.224.029.448.058.672.072.325.036.636.065.947.08.492.036.968.05 1.43.058h.217a23.346 23.346 0 0 0 3.007-.188c.303-.036.592-.087.882-.13.289-.044.556-.102.816-.16.26-.057.52-.108.76-.173.36-.086.693-.18 1.01-.282.11-.029.21-.057.312-.094.192-.072.38-.137.563-.195.26-.093.5-.188.716-.282.354-.151.636-.289.845-.39.08-.043.152-.08.21-.115.123-.065.188-.102.21-.116a16.53 16.53 0 0 1 2.912 9.38"/><path id="6gzob" d="M358.941 1020.165a4.856 4.856 0 0 1-3.882 4.769l-.18.036.04.18c.697 3.129.501 6.38-.566 9.403a17.075 17.075 0 0 1-5.461 7.676l-.068.054v3.175a.543.543 0 0 1-.542.542h-20.236a.543.543 0 0 1-.542-.542v-3.175l-.068-.054a17.254 17.254 0 0 1-4.743-5.963 17.255 17.255 0 0 1-1.693-7.43c0-2.556.585-5.125 1.693-7.43a17.253 17.253 0 0 1 4.743-5.963l.068-.054v-6.564l-4.9-4.9a.54.54 0 0 1 .383-.925h25.295c.298 0 .542.243.542.542v3.071h5.239a4.892 4.892 0 0 1 4.878 4.879zm-4.95 11.534c.71-3.948-.077-7.99-2.213-11.384l-.843-1.221a16.038 16.038 0 0 0-2.983-3.006.546.546 0 0 1-.212-.431v-11.573h-23.444l4.133 4.135c.101.1.16.24.16.383v7.055c0 .167-.08.328-.212.43a16.205 16.205 0 0 0-3.291 3.392l-1.194 1.945-.006.012a16.073 16.073 0 0 0 4.49 20.161.547.547 0 0 1 .212.43v2.899h19.152v-2.898a.54.54 0 0 1 .211-.43 15.999 15.999 0 0 0 6.04-9.9zm.775-7.809c1.8-.33 3.1-1.897 3.091-3.726l-.003-8.673a3.805 3.805 0 0 0-3.794-3.794h-5.24v7.69l.068.054c.343.274.68.566 1 .866.06.056.118.115.175.174.041.042.082.085.124.126l.029.028c.2.198.408.402.6.613.072.076.137.154.206.237l.125.149.095.109c.148.171.288.333.422.508.08.104.158.21.235.318l.09.124.097.13c.052.068.103.136.152.207l.021.03.032.02c.04.025.066.064.076.109l.008.036.02.03.016.025a11.108 11.108 0 0 1 .253.4l.075.121c.155.247.277.45.383.637.082.146.16.298.236.445l.042.081c.109.21.22.427.322.643.07.153.138.311.204.464l.034.081c.078.183.179.424.27.667.067.18.128.36.2.572.019.057.04.114.06.17.026.07.05.137.071.204l.047.154z"/></defs><g><g transform="translate(-321 -1003)"><use fill="#b6dcfe" xlink:href="#6gzoa"/></g><g transform="translate(-321 -1003)"><use fill="#333" xlink:href="#6gzob"/></g></g></svg>